<?xml version="1.0" encoding="UTF-8"?>
<svg width="40px" height="40px" viewBox="0 0 40 40" version="1.1" xmlns="http://www.w3.org/2000/svg" xmlns:xlink="http://www.w3.org/1999/xlink">
    <!-- Generator: Sketch 57.1 (83088) - https://sketch.com -->
    <title>icon-maif</title>
    <desc>Created with Sketch.</desc>
    <g id="Page-1" stroke="none" stroke-width="1" fill="none" fill-rule="evenodd">
        <g id="icon-maif" fill-rule="nonzero">
            <path d="M7.7,0 L32.3,0 C34.98,0 35.95,0.28 36.93,0.8 C37.8974129,1.31159763 38.6884024,2.10258713 39.2,3.07 C39.72,4.05 40,5.02 40,7.69 L40,32.31 C40,34.98 39.72,35.95 39.2,36.93 C38.6884024,37.8974129 37.8974129,38.6884024 36.93,39.2 C35.95,39.72 34.98,40 32.31,40 L7.69,40 C5.02,40 4.05,39.72 3.07,39.2 C2.10258713,38.6884024 1.31159763,37.8974129 0.8,36.93 C0.28,35.95 0,34.98 0,32.31 L0,7.69 C0,5.02 0.28,4.05 0.8,3.07 C1.31159763,2.10258713 2.10258713,1.31159763 3.07,0.8 C4.05,0.28 5.02,0 7.69,0 L7.7,0 Z" id="Path" fill="#FFFFFF"></path>
            <g id="Logo_Maif_2019" transform="translate(0.500000, 3.000000)">
                <g id="g18" transform="translate(19.500000, 15.000000) scale(-1, 1) rotate(-180.000000) translate(-19.500000, -15.000000) ">
                    <polygon id="path122" fill="#ED2131" points="27.8746308 29.906278 0.0776162234 5.36751458 38.9738939 0.00797186441"></polygon>
                    <g id="g180" transform="translate(8.297872, 7.423729)" fill="#FFFFFF">
                        <polygon id="path124" points="17.2322911 0.058880339 19.4484028 0.058880339 19.4484028 7.53358475 17.2322911 7.53358475"></polygon>
                        <path d="M11.7457099,7.53348203 L9.00519854,0.0587766102 L11.4752947,0.0587766102 L11.8780329,1.28927898 L14.0109398,1.28927898 L14.4135038,0.0587766102 L16.8837752,0.0587766102 L14.1434382,7.53348203 L11.7457099,7.53348203 Z M12.2783244,3.0234661 L12.9395922,5.39381186 L13.6102988,3.0234661 L12.2783244,3.0234661 Z" id="path128"></path>
                        <polygon id="path168" transform="translate(4.329263, 3.796257) scale(-1, 1) rotate(-180.000000) translate(-4.329263, -3.796257) " points="6.07518934 0.0589684698 4.3613221 3.70568467 2.64259284 0.0591171987 0.00205212751 2.39030413 0.00220460091 7.53354494 2.15395835 7.53354494 2.15395835 3.32552008 3.62821829 6.40616144 5.03061191 6.40616144 6.50472015 3.32552008 6.50472015 7.53354494 8.6564739 7.53354494 8.6564739 0.0589684698"></polygon>
                        <polygon id="path173" transform="translate(23.037081, 3.796182) scale(-1, 1) rotate(-180.000000) translate(-23.037081, -3.796182) " points="20.2887402 0.058819741 20.2887402 7.53354494 22.5049163 7.53354494 22.5049163 4.6630963 25.297396 4.6630963 25.5956511 2.88800414 22.5049163 2.88800414 22.5049163 1.83421013 25.7854222 1.83421013 25.1263131 0.058819741"></polygon>
                    </g>
                </g>
            </g>
        </g>
    </g>
</svg>