<svg xmlns="http://www.w3.org/2000/svg" width="32" height="32" viewBox="0 0 32 32">
  <g fill="none" fill-rule="evenodd">
    <circle cx="16" cy="16" r="16" fill="#FF962E"/>
    <g fill="#FFFFFF" transform="translate(4 8)">
      <path d="M1 13C1 14.379 2.121 16 3.5 16L20.5 16C21.878 16 23 14.379 23 13L1 13zM7 3C7.275 3 7.5 3.225 7.5 3.5 7.5 3.775 7.275 4 7 4 6.724 4 6.5 3.775 6.5 3.5 6.5 3.225 6.724 3 7 3L7 3zM9.5 2C9.775 2 10 2.225 10 2.5 10 2.775 9.775 3 9.5 3 9.224 3 9 2.775 9 2.5 9 2.225 9.224 2 9.5 2L9.5 2zM12 3C12.275 3 12.5 3.225 12.5 3.5 12.5 3.775 12.275 4 12 4 11.724 4 11.5 3.775 11.5 3.5 11.5 3.225 11.724 3 12 3L12 3zM14.5 2C14.775 2 15 2.225 15 2.5 15 2.775 14.775 3 14.5 3 14.224 3 14 2.775 14 2.5 14 2.225 14.224 2 14.5 2L14.5 2zM17 3C17.275 3 17.5 3.225 17.5 3.5 17.5 3.775 17.275 4 17 4 16.724 4 16.5 3.775 16.5 3.5 16.5 3.225 16.724 3 17 3L17 3zM23 7C23 3.141 19.859 0 16 0L8 0C4.14 0 1 3.141 1 7L23 7zM22 8L2 8C1.173 8 .5 8.674.5 9.5L.5 10.5C.5 11.328 1.173 12 2 12L22 12C22.826 12 23.5 11.328 23.5 10.5L23.5 9.5C23.5 8.674 22.826 8 22 8"/>
    </g>
  </g>
</svg>
