<svg xmlns="http://www.w3.org/2000/svg" viewBox="0 0 72 72"><path fill-rule="evenodd" d="M48.5,17.001 C54.8,20.994 59,28.008 59,36 C59,43.992 54.8,51.006 48.5,54.999 L48.5,70.5 C48.5,71.328 47.828,72 47,72 L26,72 C25.172,72 24.5,71.328 24.5,70.5 L24.5,54.999 C18.203,51.006 14,43.992 14,36 C14,28.008 18.203,20.994 24.5,17.001 L24.5,1.5 C24.5,0.672 25.172,0 26,0 L47,0 C47.828,0 48.5,0.672 48.5,1.5 L48.5,17.001 Z M36.5,55.5 C47.252,55.5 56,46.752 56,36 C56,25.248 47.252,16.5 36.5,16.5 C25.748,16.5 17,25.248 17,36 C17,46.752 25.748,55.5 36.5,55.5 Z M36.5,35.3085 L46.478,43.8645 C47.105,44.4015 47.18,45.3465 46.64,45.9765 C46.343,46.3245 45.923,46.4985 45.5,46.4985 C45.152,46.4985 44.807,46.3815 44.525,46.1355 L34.025,37.1355 C33.692,36.8565 33.5,36.4395 33.5,35.9985 L33.5,26.9985 C33.5,26.1705 34.172,25.4985 35,25.4985 C35.828,25.4985 36.5,26.1705 36.5,26.9985 L36.5,35.3085 Z"/></svg>