<svg xmlns="http://www.w3.org/2000/svg" width="32" height="32" viewBox="0 0 32 32">
  <g fill="none" fill-rule="evenodd">
    <circle cx="16" cy="16" r="16" fill="#95999D"/>
    <path fill="#FFFFFF" d="M12,0 C18.616,0 24,5.383 24,12 C24,18.617 18.616,24 12,24 C5.383,24 0,18.617 0,12 C0,5.383 5.383,0 12,0 Z M12,1 C5.93441667,1 1,5.93441667 1,12 C1,18.0655833 5.93441667,23 12,23 C18.0646667,23 23,18.0655833 23,12 C23,5.93441667 18.0646667,1 12,1 Z M12,19 C11.447,19 11,18.553 11,18 C11,17.448 11.447,17 12,17 C12.551,17 13,17.448 13,18 C13,18.553 12.551,19 12,19 Z M12.5,12.965 L12.5,15.5 C12.5,15.777 12.275,16 12,16 C11.724,16 11.5,15.777 11.5,15.5 L11.5,12.5 C11.5,12.224 11.724,12 12,12 C13.378,12 14.5,10.879 14.5,9.5 C14.5,8.121 13.378,7 12,7 C10.621,7 9.5,8.121 9.5,9.5 C9.5,9.777 9.275,10 9,10 C8.724,10 8.5,9.777 8.5,9.5 C8.5,7.57 10.069,6 12,6 C13.93,6 15.5,7.57 15.5,9.5 C15.5,11.26 14.193,12.721 12.5,12.965 Z" transform="translate(4 4)"/>
  </g>
</svg>
