<svg xmlns="http://www.w3.org/2000/svg" width="32" height="32" viewBox="0 0 32 32">
  <g fill="none" fill-rule="evenodd">
    <circle cx="16" cy="16" r="16" fill="#7F6BEE"/>
    <path fill="#FFFFFF" d="M13.5,7.9995 L12.5,7.9995 C12.224,7.9995 12,7.7755 12,7.4995 C12,7.2235 12.224,6.9995 12.5,6.9995 L13.5,6.9995 C13.775,6.9995 14,7.2235 14,7.4995 C14,7.7755 13.775,7.9995 13.5,7.9995 M13.5,10.9995 L12.5,10.9995 C12.224,10.9995 12,10.7755 12,10.4995 C12,10.2235 12.224,9.9995 12.5,9.9995 L13.5,9.9995 C13.775,9.9995 14,10.2235 14,10.4995 C14,10.7755 13.775,10.9995 13.5,10.9995 M13.5,13.9995 L12.5,13.9995 C12.224,13.9995 12,13.7755 12,13.4995 C12,13.2235 12.224,12.9995 12.5,12.9995 L13.5,12.9995 C13.775,12.9995 14,13.2235 14,13.4995 C14,13.7755 13.775,13.9995 13.5,13.9995 M13.5,16.9995 L12.5,16.9995 C12.224,16.9995 12,16.7755 12,16.4995 C12,16.2235 12.224,15.9995 12.5,15.9995 L13.5,15.9995 C13.775,15.9995 14,16.2235 14,16.4995 C14,16.7755 13.775,16.9995 13.5,16.9995 M9.5,7.9995 L3.5,7.9995 C3.224,7.9995 3,7.7755 3,7.4995 C3,7.2235 3.224,6.9995 3.5,6.9995 L9.5,6.9995 C9.775,6.9995 10,7.2235 10,7.4995 C10,7.7755 9.775,7.9995 9.5,7.9995 M3,10.4995 C3,10.2235 3.224,9.9995 3.5,9.9995 L7.5,9.9995 C7.775,9.9995 8,10.2235 8,10.4995 C8,10.7755 7.775,10.9995 7.5,10.9995 L3.5,10.9995 C3.224,10.9995 3,10.7755 3,10.4995 M8.5,13.9995 L3.5,13.9995 C3.224,13.9995 3,13.7755 3,13.4995 C3,13.2235 3.224,12.9995 3.5,12.9995 L8.5,12.9995 C8.775,12.9995 9,13.2235 9,13.4995 C9,13.7755 8.775,13.9995 8.5,13.9995 M6.5,16.9995 L3.5,16.9995 C3.224,16.9995 3,16.7755 3,16.4995 C3,16.2235 3.224,15.9995 3.5,15.9995 L6.5,15.9995 C6.775,15.9995 7,16.2235 7,16.4995 C7,16.7755 6.775,16.9995 6.5,16.9995 M16.691,1.0375 C16.504,0.9595 16.289,1.0035 16.146,1.1455 L14.5,2.7925 L12.854,1.1455 C12.658,0.9505 12.342,0.9505 12.146,1.1455 L10.5,2.7925 L8.854,1.1455 C8.658,0.9505 8.342,0.9505 8.146,1.1455 L6.5,2.7925 L4.854,1.1455 C4.658,0.9505 4.342,0.9505 4.146,1.1455 L2.5,2.7925 L0.854,1.1455 C0.71,1.0035 0.494,0.9595 0.309,1.0375 C0.121,1.1145 0,1.2975 0,1.4995 L0,24.4995 C0,24.7015 0.121,24.8845 0.309,24.9615 C0.494,25.0395 0.71,24.9975 0.854,24.8535 L2.5,23.2065 L4.146,24.8535 C4.342,25.0485 4.658,25.0485 4.854,24.8535 L6.5,23.2065 L8.146,24.8535 C8.342,25.0485 8.658,25.0485 8.854,24.8535 L10.5,23.2065 L12.146,24.8535 C12.342,25.0485 12.658,25.0485 12.854,24.8535 L14.5,23.2065 L16.146,24.8535 C16.242,24.9485 16.369,24.9995 16.5,24.9995 C16.565,24.9995 16.629,24.9885 16.691,24.9615 C16.878,24.8845 17,24.7015 17,24.4995 L17,1.4995 C17,1.2975 16.878,1.1145 16.691,1.0375" transform="translate(8 3)"/>
  </g>
</svg>
