<svg xmlns="http://www.w3.org/2000/svg" width="16" height="16" viewBox="0 0 16 16">
  <g fill="none" fill-rule="evenodd" transform="translate(-192 -192)">
    <path fill="#297EF2" fill-rule="nonzero" d="M195.414214,202 L203,202 C203.552285,202 204,202.447715 204,203 C204,203.552285 203.552285,204 203,204 L195.414214,204 L196.707107,205.292893 C197.097631,205.683418 197.097631,206.316582 196.707107,206.707107 C196.316582,207.097631 195.683418,207.097631 195.292893,206.707107 L192.292893,203.707107 C191.902369,203.316582 191.902369,202.683418 192.292893,202.292893 L195.292893,199.292893 C195.683418,198.902369 196.316582,198.902369 196.707107,199.292893 C197.097631,199.683418 197.097631,200.316582 196.707107,200.707107 L195.414214,202 Z M204.585786,198 L197,198 C196.447715,198 196,197.552285 196,197 C196,196.447715 196.447715,196 197,196 L204.585786,196 L203.292893,194.707107 C202.902369,194.316582 202.902369,193.683418 203.292893,193.292893 C203.683418,192.902369 204.316582,192.902369 204.707107,193.292893 L207.707107,196.292893 C208.097631,196.683418 208.097631,197.316582 207.707107,197.707107 L204.707107,200.707107 C204.316582,201.097631 203.683418,201.097631 203.292893,200.707107 C202.902369,200.316582 202.902369,199.683418 203.292893,199.292893 L204.585786,198 Z"/>
  </g>
</svg>
