<svg xmlns="http://www.w3.org/2000/svg" width="32" height="32" viewBox="0 0 32 32">
  <g fill="none" fill-rule="evenodd">
    <circle cx="16" cy="16" r="16" fill="#FD7461"/>
    <path fill="#FFFFFF" d="M16.00025,10 C14.79225,10 13.78225,9.14 13.55025,8 L18.44925,8 C18.21725,9.14 17.20725,10 16.00025,10 M27.85425,12.646 L23.81725,8.611 C22.79325,7.588 21.37525,7 19.92825,7 L12.07025,7 C10.60225,7 9.22125,7.572 8.18225,8.611 L4.14625,12.646 C3.95125,12.842 3.95125,13.158 4.14625,13.354 L7.14625,16.354 C7.34225,16.549 7.65825,16.549 7.85425,16.354 L10.00025,14.707 L10.00025,25.5 C10.00025,25.776 10.22425,26 10.50025,26 L21.50025,26 C21.77625,26 22.00025,25.776 22.00025,25.5 L22.00025,14.707 L24.14625,16.354 C24.34225,16.549 24.65825,16.549 24.85425,16.354 L27.85425,13.354 C27.94725,13.26 28.00025,13.133 28.00025,13 C28.00025,12.867 27.94725,12.74 27.85425,12.646"/>
  </g>
</svg>
