<svg xmlns="http://www.w3.org/2000/svg" viewBox="0 0 72 72"><path fill-rule="evenodd" d="M46.5,0 C48.981,0 51,2.019 51,4.5 L51,67.5 C51,69.984 48.981,72 46.5,72 L4.5,72 C2.019,72 0,69.984 0,67.5 L0,4.5 C0,2.019 2.019,0 4.5,0 L46.5,0 Z M45,22.5 L45,7.5 C45,6.672 44.328,6 43.5,6 L7.5,6 C6.672,6 6,6.672 6,7.5 L6,22.5 C6,23.328 6.672,24 7.5,24 L43.5,24 C44.328,24 45,23.328 45,22.5 Z M40.5,36 C41.328,36 42,35.328 42,34.5 C42,33.672 41.328,33 40.5,33 L37.5,33 C36.672,33 36,33.672 36,34.5 C36,35.328 36.672,36 37.5,36 L40.5,36 Z M40.5,45 C41.328,45 42,44.328 42,43.5 C42,42.672 41.328,42 40.5,42 L37.5,42 C36.672,42 36,42.672 36,43.5 C36,44.328 36.672,45 37.5,45 L40.5,45 Z M40.5,54 C41.328,54 42,53.328 42,52.5 C42,51.672 41.328,51 40.5,51 L37.5,51 C36.672,51 36,51.672 36,52.5 C36,53.328 36.672,54 37.5,54 L40.5,54 Z M28.5,51 C27.672,51 27,51.672 27,52.5 C27,53.328 27.672,54 28.5,54 L31.5,54 C32.328,54 33,53.328 33,52.5 C33,51.672 32.328,51 31.5,51 L28.5,51 Z M27,34.5 C27,35.328 27.672,36 28.5,36 L31.5,36 C32.328,36 33,35.328 33,34.5 C33,33.672 32.328,33 31.5,33 L28.5,33 C27.672,33 27,33.672 27,34.5 Z M28.5,42 C27.672,42 27,42.672 27,43.5 C27,44.328 27.672,45 28.5,45 L31.5,45 C32.328,45 33,44.328 33,43.5 C33,42.672 32.328,42 31.5,42 L28.5,42 Z M40.5,63 C41.328,63 42,62.328 42,61.5 C42,60.672 41.328,60 40.5,60 L28.5,60 C27.672,60 27,60.672 27,61.5 C27,62.328 27.672,63 28.5,63 L40.5,63 Z M22.5,36 C23.328,36 24,35.328 24,34.5 C24,33.672 23.328,33 22.5,33 L19.5,33 C18.672,33 18,33.672 18,34.5 C18,35.328 18.672,36 19.5,36 L22.5,36 Z M22.5,45 C23.328,45 24,44.328 24,43.5 C24,42.672 23.328,42 22.5,42 L19.5,42 C18.672,42 18,42.672 18,43.5 C18,44.328 18.672,45 19.5,45 L22.5,45 Z M22.5,54 C23.328,54 24,53.328 24,52.5 C24,51.672 23.328,51 22.5,51 L19.5,51 C18.672,51 18,51.672 18,52.5 C18,53.328 18.672,54 19.5,54 L22.5,54 Z M22.5,63 C23.328,63 24,62.328 24,61.5 C24,60.672 23.328,60 22.5,60 L19.5,60 C18.672,60 18,60.672 18,61.5 C18,62.328 18.672,63 19.5,63 L22.5,63 Z M13.5,36 C14.328,36 15,35.328 15,34.5 C15,33.672 14.328,33 13.5,33 L10.5,33 C9.672,33 9,33.672 9,34.5 C9,35.328 9.672,36 10.5,36 L13.5,36 Z M13.5,45 C14.328,45 15,44.328 15,43.5 C15,42.672 14.328,42 13.5,42 L10.5,42 C9.672,42 9,42.672 9,43.5 C9,44.328 9.672,45 10.5,45 L13.5,45 Z M13.5,54 C14.328,54 15,53.328 15,52.5 C15,51.672 14.328,51 13.5,51 L10.5,51 C9.672,51 9,51.672 9,52.5 C9,53.328 9.672,54 10.5,54 L13.5,54 Z M13.5,63 C14.328,63 15,62.328 15,61.5 C15,60.672 14.328,60 13.5,60 L10.5,60 C9.672,60 9,60.672 9,61.5 C9,62.328 9.672,63 10.5,63 L13.5,63 Z M37.5,12 C38.328,12 39,12.672 39,13.5 L39,16.5 C39,17.328 38.328,18 37.5,18 C36.672,18 36,17.328 36,16.5 L36,13.5 C36,12.672 36.672,12 37.5,12 Z" transform="translate(11)"/></svg>