<svg xmlns="http://www.w3.org/2000/svg" width="32" height="32" viewBox="0 0 32 32">
  <g fill="none" fill-rule="evenodd">
    <circle cx="16" cy="16" r="16" fill="#7F6BEF"/>
    <path fill="#FFFFFF" d="M22,23 L10,23 L10,9 L22,9 L22,23 Z M16,26.5 C15.448,26.5 15,26.052 15,25.5 C15,24.947 15.448,24.5 16,24.5 C16.553,24.5 17,24.947 17,25.5 C17,26.052 16.553,26.5 16,26.5 L16,26.5 Z M13.5,6 L18.5,6 C18.776,6 19,6.224 19,6.5 C19,6.776 18.776,7 18.5,7 L13.5,7 C13.224,7 13,6.776 13,6.5 C13,6.224 13.224,6 13.5,6 L13.5,6 Z M20.5,4 L11.5,4 C10.121,4 9,5.122 9,6.5 L9,8 L9,24 L9,25.5 C9,26.878 10.121,28 11.5,28 L20.5,28 C21.878,28 23,26.878 23,25.5 L23,24 L23,8 L23,6.5 C23,5.122 21.878,4 20.5,4 L20.5,4 Z"/>
  </g>
</svg>
