<svg xmlns="http://www.w3.org/2000/svg" width="32" height="32" viewBox="0 0 32 32">
  <g fill="none" fill-rule="evenodd">
    <circle cx="16" cy="16" r="16" fill="#FF962E"/>
    <g fill="#FFFFFF" transform="translate(9 4)">
      <path d="M14.5 15.4C14.488 9.099 13.417 1.943 11.759.355 11.575.14 11.305 0 11 0 10.447 0 10 .447 10 1L10 23C10 23.552 10.447 24 11 24 11.552 24 12 23.552 12 23L12 16 14 16 14.01 16C14.286 16 14.51 15.775 14.51 15.5 14.51 15.466 14.506 15.431 14.5 15.4M7 0C6.447 0 6 .447 6 1L6 5.5C6 6.236 5.595 6.875 5 7.223L5 1C5 .447 4.552 0 4 0 3.447 0 3 .447 3 1L3 7.223C2.404 6.875 2 6.236 2 5.5L2 1C2 .447 1.552 0 1 0 .447 0 0 .447 0 1L0 5.5C0 7.359 1.277 8.922 3 9.369L3 23C3 23.553 3.447 24 4 24 4.552 24 5 23.553 5 23L5 9.369C6.722 8.922 8 7.359 8 5.5L8 1C8 .447 7.552 0 7 0"/>
    </g>
  </g>
</svg>
