<svg xmlns="http://www.w3.org/2000/svg" width="32" height="32" viewBox="0 0 32 32">
  <g fill="none" fill-rule="evenodd">
    <circle cx="16" cy="16" r="16" fill="#35CE68"/>
    <g fill="#FFFFFF" transform="translate(4 9)">
      <path d="M3.4127,6 L14.4987,6 C15.0507,6 15.4987,5.552 15.4987,5 C15.4987,4.447 15.0507,4 14.4987,4 L3.4127,4 L5.7057,1.707 C6.0967,1.316 6.0967,0.684 5.7057,0.293 C5.3147,-0.098 4.6807,-0.098 4.2917,0.293 L0.2917,4.292 C-0.0993,4.683 -0.0953,5.322 0.2917,5.707 L4.2917,9.707 C4.4867,9.902 4.7427,10 4.9987,10 C5.2547,10 5.5107,9.902 5.7057,9.707 C6.0967,9.316 6.0967,8.684 5.7057,8.293 L3.4127,6 Z"/>
      <path d="M23.7047,8.292 L19.7057,4.293 C19.3147,3.902 18.6817,3.902 18.2917,4.293 C17.9007,4.684 17.9007,5.316 18.2917,5.707 L20.5847,8 L9.4987,8 C8.9457,8 8.4987,8.447 8.4987,9 C8.4987,9.552 8.9457,10 9.4987,10 L20.5847,10 L18.2917,12.293 C17.9007,12.684 17.9007,13.316 18.2917,13.707 C18.4867,13.902 18.7427,14 18.9987,14 C19.2547,14 19.5107,13.902 19.7057,13.707 L23.7047,9.707 C24.0917,9.32 24.0957,8.684 23.7047,8.292"/>
    </g>
  </g>
</svg>
