<svg viewBox="0 0 52 40" xmlns="http://www.w3.org/2000/svg">
  <path d="M38.23098,40 L13.76902,40 C6.175046,40 0,33.756072 0,26.0806092 C0,22.4203755 1.393962,18.9628463 3.927021,16.3465932 C6.145918,14.0569779 9.020185,12.6317448 12.129554,12.2609951 C12.496769,9.1175003 13.905295,6.2113693 16.172045,3.96901668 C18.760238,1.40737823 22.179607,0 25.800788,0 C29.420929,0 32.841339,1.40737823 35.429532,3.96796639 C37.686919,6.2008665 39.091284,9.0912433 39.467862,12.2179336 C46.482405,12.8533543 52,18.8284102 52,26.0816594 C52,33.756072 45.820793,40 38.22994,40 L38.23098,40 Z M38.068077,36.9989547 L38.171599,36.9989547 C44.142748,36.9989547 49,32.0883546 49,26.0520167 C49,20.0167241 44.142748,15.1061239 38.171599,15.1061239 L38.062901,15.1061239 C37.28338,15.1061239 36.644649,14.478972 36.627051,13.6887604 C36.492472,7.7935317 31.63729,3 25.802791,3 C19.968291,3 15.111039,7.7956222 14.977495,13.690851 C14.959896,14.4664289 14.34187,15.0914904 13.573737,15.1092597 C7.743378,15.2451426 3,20.1536522 3,26.0530619 C3,32.0893999 7.857252,37 13.828401,37 L13.916395,37 L13.950557,36.9979094 C13.981614,36.9979094 14.01267,36.9979094 14.043727,37 L38.064971,37 L38.068077,36.9989547 Z M33.766421,25.2227318 C32.890676,24.6381003 32.847676,23.5643091 32.845578,23.5171094 C32.839285,23.2253301 32.606453,22.9957683 32.32118,23.0000592 C32.035908,23.0054228 31.809368,23.2467844 31.814612,23.5364185 C31.81671,23.5750363 31.831393,24.0792139 32.066323,24.6735 C28.949302,27.6942753 24.051427,27.698566 20.928113,24.6917363 C21.169336,24.0888684 21.185068,23.576109 21.185068,23.5374911 C21.190312,23.2478572 20.964821,23.0086409 20.681646,23.0011319 C20.401618,22.9925502 20.163541,23.2264027 20.154102,23.5160368 C20.154102,23.5589455 20.11215,24.6370275 19.234308,25.2216592 C18.995183,25.3825669 18.92806,25.7097461 19.08433,25.9532532 C19.182917,26.1077246 19.346529,26.1924694 19.516434,26.1924694 C19.612923,26.1924694 19.710461,26.1645787 19.797512,26.1066519 C20.023003,25.9564713 20.211786,25.7848363 20.370154,25.6024742 C22.104862,27.2008247 24.296845,28 26.488828,28 C28.686055,28 30.883282,27.1976066 32.621136,25.5917471 C32.780553,25.7762546 32.971434,25.9521804 33.203218,26.1066519 C33.289219,26.1645787 33.387806,26.1924694 33.484295,26.1924694 C33.652102,26.1924694 33.816763,26.1066519 33.916399,25.9521804 C34.07162,25.7076006 34.004497,25.3793488 33.766421,25.2205864 L33.766421,25.2227318 Z"></path>
</svg>
