<?xml version="1.0" encoding="UTF-8"?>
<svg width="32px" height="32px" viewBox="0 0 32 32" version="1.1" xmlns="http://www.w3.org/2000/svg" xmlns:xlink="http://www.w3.org/1999/xlink">
    <!-- Generator: Sketch 46.2 (44496) - http://www.bohemiancoding.com/sketch -->
    <title>icon-bank-demo copy</title>
    <desc>Created with Sketch.</desc>
    <defs></defs>
    <g id="Page-1" stroke="none" stroke-width="1" fill="none" fill-rule="evenodd">
        <g id="icon-bank-demo-copy">
            <g id="icon-bank-demo">
                <rect id="32x32" x="0" y="0" width="32" height="32"></rect>
                <g id="Rectangle-5" transform="translate(0.000000, 5.000000)">
                    <g id="path-1-link" fill="#8EE39B">
                        <rect id="path-1" x="0" y="0" width="30" height="20.625" rx="2"></rect>
                    </g>
                    <rect id="Rectangle-path" stroke="#16B52D" stroke-width="2" x="1" y="1" width="28" height="18.625" rx="1"></rect>
                </g>
                <circle id="Oval-2" fill="#16B52D" fill-rule="nonzero" cx="15" cy="15.3125" r="4.6875"></circle>
                <circle id="Oval-2-Copy" fill="#16B52D" fill-rule="nonzero" cx="6.5625" cy="15.3125" r="1.875"></circle>
                <circle id="Oval-2-Copy-2" fill="#16B52D" fill-rule="nonzero" cx="23.4375" cy="15.3125" r="1.875"></circle>
                <g id="bandeau" transform="translate(8.000000, 23.000000)">
                    <rect id="Rectangle-12" fill="#5D6165" fill-rule="nonzero" x="0" y="0" width="24" height="8" rx="1"></rect>
                    <path d="M6.29,3.831 C6.29,4.14900159 6.23700053,4.44099867 6.131,4.707 C6.02499947,4.97300133 5.87600096,5.20199904 5.684,5.394 C5.49199904,5.58600096 5.26100135,5.73499947 4.991,5.841 C4.72099865,5.94700053 4.42200164,6 4.094,6 L2.438,6 L2.438,1.662 L4.094,1.662 C4.42200164,1.662 4.72099865,1.71549946 4.991,1.8225 C5.26100135,1.92950053 5.49199904,2.07849905 5.684,2.2695 C5.87600096,2.46050095 6.02499947,2.68899867 6.131,2.955 C6.23700053,3.22100133 6.29,3.51299841 6.29,3.831 Z M5.465,3.831 C5.465,3.59299881 5.43300032,3.37950095 5.369,3.1905 C5.30499968,3.00149906 5.21400059,2.84150065 5.096,2.7105 C4.97799941,2.57949934 4.83450084,2.47900035 4.6655,2.409 C4.49649916,2.33899965 4.30600106,2.304 4.094,2.304 L3.251,2.304 L3.251,5.358 L4.094,5.358 C4.30600106,5.358 4.49649916,5.32300035 4.6655,5.253 C4.83450084,5.18299965 4.97799941,5.08250066 5.096,4.9515 C5.21400059,4.82049934 5.30499968,4.66050094 5.369,4.4715 C5.43300032,4.28249905 5.465,4.06900119 5.465,3.831 Z M10.359,1.662 L10.359,2.304 L8.43599999,2.304 L8.43599999,3.507 L9.95099999,3.507 L9.95099999,4.128 L8.43599999,4.128 L8.43599999,5.355 L10.359,5.355 L10.359,6 L7.62299999,6 L7.62299999,1.662 L10.359,1.662 Z M13.936,4.2 C13.9700001,4.26400032 14.0014998,4.33049966 14.0305,4.3995 C14.0595001,4.46850034 14.0879998,4.53799965 14.116,4.608 C14.1440001,4.53599964 14.1729998,4.46500035 14.203,4.395 C14.2330001,4.32499965 14.2649998,4.25800032 14.299,4.194 L15.583,1.791 C15.5990001,1.76099985 15.6154999,1.73700009 15.6325,1.719 C15.6495001,1.70099991 15.6684999,1.68800004 15.6895,1.68 C15.7105001,1.67199996 15.7339998,1.66700001 15.76,1.665 C15.7860001,1.66299999 15.8169998,1.662 15.853,1.662 L16.462,1.662 L16.462,6 L15.751,6 L15.751,3.198 C15.751,3.14599974 15.7525,3.08900031 15.7555,3.027 C15.7585,2.96499969 15.7629999,2.90200032 15.769,2.838 L14.458,5.298 C14.4279998,5.35400028 14.3890002,5.39749985 14.341,5.4285 C14.2929997,5.45950016 14.2370003,5.475 14.173,5.475 L14.062,5.475 C13.9979997,5.475 13.9420002,5.45950016 13.894,5.4285 C13.8459997,5.39749985 13.8070001,5.35400028 13.777,5.298 L12.448,2.829 C12.456,2.89500033 12.4615,2.95949968 12.4645,3.0225 C12.4675,3.08550031 12.469,3.14399973 12.469,3.198 L12.469,6 L11.758,6 L11.758,1.662 L12.367,1.662 C12.4030002,1.662 12.4339998,1.66299999 12.46,1.665 C12.4860001,1.66700001 12.5094999,1.67199996 12.5305,1.68 C12.5515001,1.68800004 12.5709999,1.70099991 12.589,1.719 C12.6070001,1.73700009 12.6239999,1.76099985 12.64,1.791 L13.936,4.2 Z M22.199,3.831 C22.199,4.14900159 22.1460005,4.44349865 22.04,4.7145 C21.9339994,4.98550136 21.7850009,5.21999901 21.593,5.418 C21.400999,5.61600099 21.1700013,5.77049945 20.9,5.8815 C20.6299986,5.99250056 20.3310016,6.048 20.003,6.048 C19.6749983,6.048 19.3755013,5.99250056 19.1045,5.8815 C18.8334986,5.77049945 18.6015009,5.61600099 18.4085,5.418 C18.215499,5.21999901 18.0660005,4.98550136 17.96,4.7145 C17.8539994,4.44349865 17.801,4.14900159 17.801,3.831 C17.801,3.51299841 17.8539994,3.21850135 17.96,2.9475 C18.0660005,2.67649865 18.215499,2.44200099 18.4085,2.244 C18.6015009,2.04599901 18.8334986,1.89150056 19.1045,1.7805 C19.3755013,1.66949944 19.6749983,1.614 20.003,1.614 C20.3310016,1.614 20.6299986,1.66999944 20.9,1.782 C21.1700013,1.89400056 21.400999,2.04849901 21.593,2.2455 C21.7850009,2.44250099 21.9339994,2.67649865 22.04,2.9475 C22.1460005,3.21850135 22.199,3.51299841 22.199,3.831 Z M21.371,3.831 C21.371,3.59299881 21.3395003,3.37950095 21.2765,3.1905 C21.2134996,3.00149906 21.1230006,2.84100066 21.005,2.709 C20.8869994,2.57699934 20.7435008,2.47600035 20.5745,2.406 C20.4054991,2.33599965 20.215001,2.301 20.003,2.301 C19.7909989,2.301 19.6000008,2.33599965 19.43,2.406 C19.2599991,2.47600035 19.1155006,2.57699934 18.9965,2.709 C18.8774994,2.84100066 18.7860003,3.00149906 18.722,3.1905 C18.6579996,3.37950095 18.626,3.59299881 18.626,3.831 C18.626,4.06900119 18.6579996,4.28249905 18.722,4.4715 C18.7860003,4.66050094 18.8774994,4.82049934 18.9965,4.9515 C19.1155006,5.08250066 19.2599991,5.18299965 19.43,5.253 C19.6000008,5.32300035 19.7909989,5.358 20.003,5.358 C20.215001,5.358 20.4054991,5.32300035 20.5745,5.253 C20.7435008,5.18299965 20.8869994,5.08250066 21.005,4.9515 C21.1230006,4.82049934 21.2134996,4.66050094 21.2765,4.4715 C21.3395003,4.28249905 21.371,4.06900119 21.371,3.831 Z" id="DEMO" fill="#FFFFFF"></path>
                </g>
            </g>
        </g>
    </g>
</svg>