<?xml version="1.0" encoding="UTF-8"?>
<svg width="32px" height="32px" viewBox="0 0 32 32" version="1.1" xmlns="http://www.w3.org/2000/svg" xmlns:xlink="http://www.w3.org/1999/xlink">
    <g id="Page-1" stroke="none" stroke-width="1" fill="none" fill-rule="evenodd">
        <g>
            <rect id="32x32" x="0" y="0" width="32" height="32"></rect>
            <g id="Rectangle-5" transform="translate(0.000000, 5.000000)">
                <g id="path-1-link" fill="#8EE39B">
                    <rect id="path-1" x="0" y="0" width="30" height="20.625" rx="2"></rect>
                </g>
                <rect id="Rectangle-path" stroke="#16B52D" stroke-width="2" x="1" y="1" width="28" height="18.625" rx="1"></rect>
            </g>
            <circle id="Oval-2" fill="#16B52D" fill-rule="nonzero" cx="15" cy="15.3125" r="4.6875"></circle>
            <circle id="Oval-2-Copy" fill="#16B52D" fill-rule="nonzero" cx="6.5625" cy="15.3125" r="1.875"></circle>
            <circle id="Oval-2-Copy-2" fill="#16B52D" fill-rule="nonzero" cx="23.4375" cy="15.3125" r="1.875"></circle>
        </g>
        <g id="bandeau" transform="translate(8.000000, 23.000000)">
            <rect id="Rectangle-12" fill="#297EF1" fill-rule="nonzero" x="0" y="0" width="24" height="8" rx="1"></rect>
            <path d="M3.05099993,6.20000076 L3.05099993,1.86200076 L4.54799993,1.86200076 C4.83200135,1.86200076 5.07449892,1.88900049 5.27549993,1.94300076 C5.47650093,1.99700103 5.64149928,2.07400026 5.77049993,2.17400076 C5.89950057,2.27400126 5.99399963,2.39500005 6.05399993,2.53700076 C6.11400023,2.67900147 6.14399993,2.83899987 6.14399993,3.01700076 C6.14399993,3.11900127 6.12900008,3.2165003 6.09899993,3.30950076 C6.06899978,3.40250123 6.02250024,3.48950036 5.95949993,3.57050076 C5.89649961,3.65150117 5.81650041,3.72500043 5.71949993,3.79100076 C5.62249944,3.85700109 5.5070006,3.91300053 5.37299993,3.95900076 C5.96900291,4.09300143 6.26699993,4.41499821 6.26699993,4.92500076 C6.26699993,5.10900168 6.23200028,5.27899998 6.16199993,5.43500076 C6.09199958,5.59100154 5.9900006,5.7255002 5.85599993,5.83850076 C5.72199926,5.95150133 5.55700091,6.04000044 5.36099993,6.10400076 C5.16499895,6.16800108 4.94100119,6.20000076 4.68899993,6.20000076 L3.05099993,6.20000076 Z M3.85799993,4.29800076 L3.85799993,5.57000076 L4.67699993,5.57000076 C4.82700068,5.57000076 4.95249942,5.55200094 5.05349993,5.51600076 C5.15450043,5.48000058 5.23549962,5.43200106 5.29649993,5.37200076 C5.35750023,5.31200046 5.40149979,5.24200116 5.42849993,5.16200076 C5.45550006,5.08200036 5.46899993,4.99700121 5.46899993,4.90700076 C5.46899993,4.81300029 5.45400008,4.72850114 5.42399993,4.65350076 C5.39399978,4.57850039 5.34700025,4.51450103 5.28299993,4.46150076 C5.21899961,4.4085005 5.13700043,4.3680009 5.03699993,4.34000076 C4.93699943,4.31200062 4.81600064,4.29800076 4.67399993,4.29800076 L3.85799993,4.29800076 Z M3.85799993,3.74000076 L4.50299993,3.74000076 C4.7770013,3.74000076 4.98499922,3.69000126 5.12699993,3.59000076 C5.26900064,3.49000026 5.33999993,3.33100185 5.33999993,3.11300076 C5.33999993,2.88699963 5.27600057,2.72600124 5.14799993,2.63000076 C5.01999929,2.53400028 4.82000129,2.48600076 4.54799993,2.48600076 L3.85799993,2.48600076 L3.85799993,3.74000076 Z M10.896,1.86200076 L10.896,2.50400076 L8.97299998,2.50400076 L8.97299998,3.70700076 L10.488,3.70700076 L10.488,4.32800076 L8.97299998,4.32800076 L8.97299998,5.55500076 L10.896,5.55500076 L10.896,6.20000076 L8.15999998,6.20000076 L8.15999998,1.86200076 L10.896,1.86200076 Z M15.852,1.86200076 L15.852,2.52500076 L14.547,2.52500076 L14.547,6.20000076 L13.74,6.20000076 L13.74,2.52500076 L12.429,2.52500076 L12.429,1.86200076 L15.852,1.86200076 Z M21.3780001,6.20000076 L20.7540001,6.20000076 C20.6839997,6.20000076 20.6265003,6.18250094 20.5815001,6.14750076 C20.5364998,6.11250059 20.5040002,6.06900102 20.4840001,6.01700076 L20.1600001,5.13200076 L18.3630001,5.13200076 L18.0390001,6.01700076 C18.023,6.06300099 17.9915003,6.10500057 17.9445001,6.14300076 C17.8974998,6.18100095 17.8400004,6.20000076 17.7720001,6.20000076 L17.1450001,6.20000076 L18.8490001,1.86200076 L19.6740001,1.86200076 L21.3780001,6.20000076 Z M18.5700001,4.56200076 L19.9530001,4.56200076 L19.4250001,3.11900076 C19.401,3.05500044 19.3745002,2.9795012 19.3455001,2.89250076 C19.3164999,2.80550033 19.2880002,2.71100127 19.2600001,2.60900076 C19.2319999,2.71100127 19.2045002,2.80600032 19.1775001,2.89400076 C19.1504999,2.9820012 19.1240002,3.05900043 19.0980001,3.12500076 L18.5700001,4.56200076 Z" id="Beta" fill="#FFFFFF"></path>
        </g>
    </g>
</svg>
