<svg xmlns="http://www.w3.org/2000/svg" width="32" height="32" viewBox="0 0 32 32">
  <g fill="none" fill-rule="evenodd">
    <circle cx="16" cy="16" r="16" fill="#FC4C83"/>
    <path fill="#FFFFFF" d="M7.5,3 C5.019,3 3,5.019 3,7.5 C3,7.776 2.775,8 2.5,8 C2.224,8 2,7.776 2,7.5 C2,4.467 4.467,2 7.5,2 C7.775,2 8,2.224 8,2.5 C8,2.776 7.775,3 7.5,3 M15,8 C15,3.364 11.846,0 7.5,0 C3.154,0 0,3.364 0,8 C0,10.726 2.182,13.542 6.318,16.164 L5.071,18.242 C4.978,18.396 4.976,18.589 5.064,18.746 C5.153,18.903 5.319,19 5.5,19 L7,19 L7,21.5 C7,22.327 7.673,23 8.5,23 C9.326,23 10,22.327 10,21.5 C10,21.224 10.224,21 10.5,21 C10.775,21 11,21.224 11,21.5 L11,23.5 C11,23.776 11.224,24 11.5,24 C11.775,24 12,23.776 12,23.5 L12,21.5 C12,20.673 11.326,20 10.5,20 C9.673,20 9,20.673 9,21.5 C9,21.775 8.775,22 8.5,22 C8.224,22 8,21.775 8,21.5 L8,19 L9.5,19 C9.68,19 9.846,18.903 9.935,18.746 C10.023,18.589 10.021,18.396 9.929,18.242 L8.682,16.164 C12.817,13.542 15,10.726 15,8" transform="translate(8 4)"/>
  </g>
</svg>
