<svg xmlns="http://www.w3.org/2000/svg" width="32" height="32" viewBox="0 0 32 32">
  <g fill="none" fill-rule="evenodd">
    <circle cx="16" cy="16" r="16" fill="#FD7461"/>
    <g fill="#FFFFFF" transform="translate(4 6)">
      <path d="M6 16C4.897 16 4 16.898 4 18 4 19.104 4.897 20 6 20 7.103 20 8 19.104 8 18 8 16.898 7.103 16 6 16M17 16C15.897 16 15 16.898 15 18 15 19.104 15.897 20 17 20 18.103 20 19 19.104 19 18 19 16.898 18.103 16 17 16M23.5 0L20.941 0C20.439 0 20.012.377 19.948.877L19.613 3.563C19.582 3.812 19.368 4 19.117 4L2 4C1.367 4 .764 4.305.388 4.815.012 5.327-.099 5.993.091 6.596L1.653 11.596C1.915 12.436 2.682 13 3.563 13L18 13C18.275 13 18.5 13.225 18.5 13.5 18.5 13.776 18.275 14 18 14L4 14C3.724 14 3.5 14.224 3.5 14.5 3.5 14.776 3.724 15 4 15L18 15C18.805 15 19.458 14.362 19.493 13.566 19.493 13.563 19.496 13.56 19.496 13.556L19.497 13.553 19.498 13.538 20.605 3.686 20.941 1 23.5 1C23.775 1 24 .776 24 .5 24 .224 23.775 0 23.5 0"/>
    </g>
  </g>
</svg>
