<?xml version="1.0" encoding="UTF-8" standalone="no"?>
<svg
   id="Icons"
   version="1.1"
   viewBox="0 0 32 32"
   xml:space="preserve"
   sodipodi:docname="icon-cat-transportation.svg"
   width="32"
   height="32"
   inkscape:version="1.1.2 (0a00cf5339, 2022-02-04)"
   xmlns:inkscape="http://www.inkscape.org/namespaces/inkscape"
   xmlns:sodipodi="http://sodipodi.sourceforge.net/DTD/sodipodi-0.dtd"
   xmlns="http://www.w3.org/2000/svg"
   xmlns:svg="http://www.w3.org/2000/svg"><defs
     id="defs1628" /><sodipodi:namedview
     id="namedview1626"
     pagecolor="#ffffff"
     bordercolor="#666666"
     borderopacity="1.0"
     inkscape:pageshadow="2"
     inkscape:pageopacity="0.0"
     inkscape:pagecheckerboard="0"
     showgrid="false"
     fit-margin-top="0"
     fit-margin-left="0"
     fit-margin-right="0"
     fit-margin-bottom="0"
     inkscape:zoom="13.640625"
     inkscape:cx="-5.7548683"
     inkscape:cy="22.726231"
     inkscape:window-width="1920"
     inkscape:window-height="1131"
     inkscape:window-x="1920"
     inkscape:window-y="32"
     inkscape:window-maximized="1"
     inkscape:current-layer="g1623" /><g
     id="g1623"
     transform="translate(-0.14295197,-0.08035851)"><circle
       cx="16.142952"
       cy="16.080359"
       r="16"
       fill="#4dcec5"
       id="circle2" /><path
       d="M 5.739549,18.817257 H 26.24281 c 0.844704,0 1.612616,-0.383956 2.073364,-1.075077 0.460747,-0.691121 0.614329,-1.459033 0.307164,-2.226945 -1.075077,-3.07165 -3.993145,-5.145014 -7.371958,-5.145014 H 5.739549 c -0.460747,0 -0.767912,0.307165 -0.767912,0.767913 v 6.911211 c 0,0.460748 0.307165,0.767912 0.767912,0.767912 z m 9.982862,-4.607474 v -2.303737 h 3.071649 v 2.303737 z m -1.535825,0 h -3.07165 v -2.303737 h 3.07165 z m 11.979433,0 h -5.836134 v -2.303737 h 0.998286 c 1.91978,0 3.68598,0.844704 4.837848,2.303737 z M 9.579111,11.906046 v 2.303737 h -3.07165 v -2.303737 z"
       id="path1619"
       style="fill:#ffffff;stroke-width:0.767913" /><path
       d="M 28.009008,20.353082 H 4.971637 c -0.460748,0 -0.767913,0.307166 -0.767913,0.767912 0,0.460748 0.307165,0.767913 0.767913,0.767913 h 23.037371 c 0.460748,0 0.767913,-0.307165 0.767913,-0.767913 0,-0.460746 -0.307165,-0.767912 -0.767913,-0.767912 z"
       id="path1621"
       style="fill:#ffffff;stroke-width:0.767913" /></g></svg>
