<svg xmlns="http://www.w3.org/2000/svg" width="32" height="32" viewBox="0 0 32 32">
  <g fill="none" fill-rule="evenodd">
    <circle cx="16" cy="16" r="16" fill="#FF962F"/>
    <g fill="#FFFFFF" transform="translate(4 3)">
      <polygon points="3.001 11.621 3.001 23 10.001 23 10.001 16 14.001 16 14.001 23 21 23 21 11.621 12.001 2.621"/>
      <path d="M23.8638,11.6621 C23.8598,11.6591 23.8578,11.6511 23.8538,11.6461 L12.3538,0.1461 C12.1628,-0.0459 11.8388,-0.0459 11.6468,0.1461 L0.1468,11.6461 C-0.0332,11.8271 -0.0602,12.1261 0.1358,12.3381 C0.3628,12.5641 0.6688,12.5311 0.8468,12.3571 C0.8488,12.3561 0.8518,12.3551 0.8538,12.3531 L12.0008,1.2061 L23.1468,12.3531 C23.1488,12.3551 23.1508,12.3561 23.1528,12.3571 C23.3438,12.5421 23.6578,12.5421 23.8468,12.3571 C23.8488,12.3561 23.8518,12.3551 23.8538,12.3531 C24.0358,12.1721 24.0598,11.8701 23.8638,11.6621"/>
    </g>
  </g>
</svg>
