<svg xmlns="http://www.w3.org/2000/svg" width="32" height="32" viewBox="0 0 32 32">
  <g fill="none" fill-rule="evenodd">
    <circle cx="16" cy="16" r="16" fill="#FF0D3D"/>
    <path fill="#FFFFFF" d="M15.0433413,20.1524 C15.0433413,19.6254 15.4713413,19.1954 16.0003413,19.1954 C16.5273413,19.1954 16.9563413,19.6254 16.9563413,20.1524 C16.9563413,20.6804 16.5273413,21.1084 16.0003413,21.1084 C15.4713413,21.1084 15.0433413,20.6804 15.0433413,20.1524 Z M15.5003413,9.1524 C15.5003413,8.8764 15.7243413,8.6524 16.0003413,8.6524 C16.2753413,8.6524 16.5003413,8.8764 16.5003413,9.1524 L16.5003413,16.8044 C16.5003413,17.0804 16.2753413,17.3044 16.0003413,17.3044 C15.7243413,17.3044 15.5003413,17.0804 15.5003413,16.8044 L15.5003413,9.1524 Z M16.4473413,3.2764 C16.2773413,2.9374 15.7223413,2.9374 15.5533413,3.2764 L4.55334129,23.2764 C4.47534129,23.4314 4.48334129,23.6154 4.57434129,23.7624 C4.66534129,23.9104 4.82634129,24.0004 5.00034129,24.0004 L27.0003413,24.0004 C27.2853413,24.0004 27.5103413,23.7764 27.5103413,23.5004 C27.5103413,23.3854 27.4713413,23.2804 27.4063413,23.1964 L16.4473413,3.2764 Z"/>
  </g>
</svg>
