<svg xmlns="http://www.w3.org/2000/svg" width="32" height="32" viewBox="0 0 32 32">
  <g fill="none" fill-rule="evenodd">
    <circle cx="16" cy="16" r="16" fill="#1FA8F1"/>
    <path fill="#FFFFFF" d="M6,8 C3.794,8 2,6.206 2,4 C2,1.795 3.794,0 6,0 C8.206,0 10,1.795 10,4 C10,6.206 8.206,8 6,8 Z M0,9 L12,9 L12,9.5 C12,14.326 9.916,16.423 8.5,17.289 L8.5,24 L3.5,24 L3.5,17.289 C2.083,16.423 0,14.328 0,9.5 L0,9 Z M15,16 C13.897,16 13,15.103 13,14 C13,12.8975 13.897,12 15,12 C16.103,12 17,12.8975 17,14 C17,15.103 16.103,16 15,16 Z M15,16.5 C16.6825,16.5 18,18.6965 18,21.5 L18,21.75 L16.25,21.75 L16.25,24 L13.75,24 L13.75,21.75 L12,21.75 L12,21.5 C12,18.6965 13.3175,16.5 15,16.5 Z" transform="translate(7 4)"/>
  </g>
</svg>
