<?xml version="1.0" encoding="UTF-8" standalone="no"?>
<svg
   id="Icons"
   style="enable-background:new 0 0 32 32;"
   version="1.1"
   viewBox="0 0 32 32"
   xml:space="preserve"
   sodipodi:docname="icon-cat-goingOutAndTravel.svg"
   inkscape:version="1.1.2 (0a00cf5339, 2022-02-04)"
   xmlns:inkscape="http://www.inkscape.org/namespaces/inkscape"
   xmlns:sodipodi="http://sodipodi.sourceforge.net/DTD/sodipodi-0.dtd"
   xmlns="http://www.w3.org/2000/svg"
   xmlns:svg="http://www.w3.org/2000/svg"><defs
     id="defs3248" /><sodipodi:namedview
     id="namedview3246"
     pagecolor="#ffffff"
     bordercolor="#666666"
     borderopacity="1.0"
     inkscape:pageshadow="2"
     inkscape:pageopacity="0.0"
     inkscape:pagecheckerboard="0"
     showgrid="false"
     inkscape:zoom="13.640625"
     inkscape:cx="24.522337"
     inkscape:cy="22.359679"
     inkscape:window-width="1920"
     inkscape:window-height="1131"
     inkscape:window-x="1920"
     inkscape:window-y="32"
     inkscape:window-maximized="1"
     inkscape:current-layer="Icons" /><g
     fill="none"
     fill-rule="evenodd"
     id="g2981"
     transform="translate(-0.03306658,0.05364825)"><circle
       cx="16"
       cy="16"
       r="16"
       fill="#40de8e"
       id="circle2977" /></g><g
     id="g3243"
     transform="matrix(0.78182367,0,0,0.78182367,3.4094424,2.5874063)"
     style="fill:#ffffff"><path
       d="m 29.6,27.7 c -1.4,-1.1 -3.6,-1.1 -5,0 0,0 -0.1,0 -0.1,0 L 25.9,24.2 15.9,20 6,24.2 7.4,27.7 c 0,0 -0.1,0 -0.1,0 -1.4,-1.1 -3.6,-1.1 -5,0 -0.4,0.3 -0.5,1 -0.1,1.4 0.3,0.4 1,0.5 1.4,0.1 0.7,-0.5 1.8,-0.5 2.5,0 0.7,0.6 1.6,0.8 2.5,0.8 0.9,0 1.8,-0.3 2.5,-0.8 0.7,-0.5 1.8,-0.5 2.5,0 1.4,1.1 3.6,1.1 5,0 0.7,-0.5 1.8,-0.5 2.5,0 1.4,1.1 3.6,1.1 5,0 0.7,-0.5 1.8,-0.5 2.5,0 0.4,0.3 1.1,0.3 1.4,-0.1 0.1,-0.4 0.1,-1 -0.4,-1.4 z"
       id="path3239"
       style="fill:#ffffff" /><path
       d="m 5.3,22.4 10.3,-4.3 c 0,0 0,0 0,0 0.1,0 0.2,-0.1 0.4,-0.1 0.1,0 0.3,0 0.4,0.1 0,0 0,0 0,0 l 10.3,4.3 1.2,-3 c 0.1,-0.3 0.1,-0.5 0,-0.8 -0.1,-0.2 -0.3,-0.4 -0.6,-0.5 L 24,16.8 V 11 C 24,9.3 22.7,8 21,8 H 19 V 4 C 19,3.7 18.9,3.5 18.7,3.3 17.2,1.8 14.8,1.8 13.3,3.3 13.1,3.5 13,3.7 13,4 V 8 H 11 C 9.3,8 8,9.3 8,11 v 5.8 L 4.7,18 C 4.4,18.1 4.2,18.3 4.1,18.5 4,18.7 4,19 4.1,19.3 Z M 12,11 h 8 c 0.6,0 1,0.4 1,1 0,0.6 -0.4,1 -1,1 h -8 c -0.6,0 -1,-0.4 -1,-1 0,-0.6 0.4,-1 1,-1 z"
       id="path3241"
       style="fill:#ffffff" /></g></svg>
