<?xml version="1.0" encoding="UTF-8"?>
<svg width="135px" height="135px" viewBox="0 0 135 135" version="1.1" xmlns="http://www.w3.org/2000/svg" xmlns:xlink="http://www.w3.org/1999/xlink">
    <!-- Generator: Sketch 63.1 (92452) - https://sketch.com -->
    <title>picto / rond / croix</title>
    <desc>Created with Sketch.</desc>
    <g id="PFM" stroke="none" stroke-width="1" fill="none" fill-rule="evenodd">
        <g id="KO" transform="translate(-139.000000, -243.000000)" fill="#2E404F" fill-rule="nonzero">
            <g id="picto-/-rond-/-croix" transform="translate(139.000000, 243.000000)">
                <g id="-maificon-croix-rouge">
                    <path d="M67.5,0 C30.2207794,0 0,30.2207794 0,67.5 C0,104.779221 30.2207794,135 67.5,135 C104.779221,135 135,104.779221 135,67.5 C135,49.5978869 127.888413,32.4289978 115.229708,19.7702923 C102.571002,7.11158672 85.4021131,0 67.5,0 Z M67.5,126.5625 C34.880682,126.5625 8.4375,100.119318 8.4375,67.5 C8.4375,34.880682 34.880682,8.4375 67.5,8.4375 C100.119318,8.4375 126.5625,34.880682 126.5625,67.5 C126.5625,83.1643489 120.339862,98.1871269 109.263494,109.263494 C98.1871269,120.339862 83.1643489,126.5625 67.5,126.5625 Z" id="Shape"/>
                    <polygon id="Path" points="88.3828125 37.6734375 67.5 58.55625 46.6171875 37.6734375 37.6734375 46.6171875 58.55625 67.5 37.6734375 88.3828125 46.6171875 97.3265625 67.5 76.44375 88.3828125 97.3265625 97.3265625 88.3828125 76.44375 67.5 97.3265625 46.6171875"/>
                </g>
            </g>
        </g>
    </g>
</svg>